<svg version="1.1" width="744" height="510" style="overflow: hidden;"><defs></defs><g id="two-70" transform="matrix(1 0 0 1 0 0)" opacity="1"><path transform="matrix(1 0 0 1 0 0)" d="M 60 42 L 690 42 " fill="#fff" stroke="#000" stroke-width="1" stroke-opacity="1" fill-opacity="1" visibility="visible" stroke-linecap="butt" stroke-linejoin="miter" stroke-miterlimit="4" id="two-71"></path><text transform="matrix(1 0 0 1 42 42)" font-family="sans-serif" font-size="18" line-height="17" text-anchor="middle" dominant-baseline="middle" alignment-baseline="middle" font-style="normal" font-weight="500" text-decoration="none" fill="#000" stroke="transparent" stroke-width="1" opacity="1" class="" visibility="visible" id="two-72">q0</text><text transform="matrix(1 0 0 1 702 42)" font-family="sans-serif" font-size="18" line-height="17" text-anchor="middle" dominant-baseline="middle" alignment-baseline="middle" font-style="normal" font-weight="500" text-decoration="none" fill="#000" stroke="transparent" stroke-width="1" opacity="1" class="" visibility="visible" id="two-73">out</text><path transform="matrix(1 0 0 1 0 0)" d="M 60 102 L 690 102 " fill="#fff" stroke="#000" stroke-width="1" stroke-opacity="1" fill-opacity="1" visibility="visible" stroke-linecap="butt" stroke-linejoin="miter" stroke-miterlimit="4" id="two-74"></path><path transform="matrix(1 0 0 1 0 0)" d="M 60 162 L 690 162 " fill="#fff" stroke="#000" stroke-width="1" stroke-opacity="1" fill-opacity="1" visibility="visible" stroke-linecap="butt" stroke-linejoin="miter" stroke-miterlimit="4" id="two-75"></path><text transform="matrix(1 0 0 1 42 162)" font-family="sans-serif" font-size="18" line-height="17" text-anchor="middle" dominant-baseline="middle" alignment-baseline="middle" font-style="normal" font-weight="500" text-decoration="none" fill="#000" stroke="transparent" stroke-width="1" opacity="1" class="" visibility="visible" id="two-76">a0</text><path transform="matrix(1 0 0 1 0 0)" d="M 60 222 L 690 222 " fill="#fff" stroke="#000" stroke-width="1" stroke-opacity="1" fill-opacity="1" visibility="visible" stroke-linecap="butt" stroke-linejoin="miter" stroke-miterlimit="4" id="two-77"></path><path transform="matrix(1 0 0 1 0 0)" d="M 60 282 L 690 282 " fill="#fff" stroke="#000" stroke-width="1" stroke-opacity="1" fill-opacity="1" visibility="visible" stroke-linecap="butt" stroke-linejoin="miter" stroke-miterlimit="4" id="two-78"></path><path transform="matrix(1 0 0 1 0 0)" d="M 60 343.8 L 690 343.8 " fill="#fff" stroke="#000" stroke-width="1" stroke-opacity="1" fill-opacity="1" visibility="visible" stroke-linecap="butt" stroke-linejoin="miter" stroke-miterlimit="4" id="two-79"></path><path transform="matrix(1 0 0 1 0 0)" d="M 60 340.2 L 690 340.2 " fill="#fff" stroke="#000" stroke-width="1" stroke-opacity="1" fill-opacity="1" visibility="visible" stroke-linecap="butt" stroke-linejoin="miter" stroke-miterlimit="4" id="two-80"></path><path transform="matrix(1 0 0 1 0 0)" d="M 60 403.8 L 690 403.8 " fill="#fff" stroke="#000" stroke-width="1" stroke-opacity="1" fill-opacity="1" visibility="visible" stroke-linecap="butt" stroke-linejoin="miter" stroke-miterlimit="4" id="two-81"></path><path transform="matrix(1 0 0 1 0 0)" d="M 60 400.2 L 690 400.2 " fill="#fff" stroke="#000" stroke-width="1" stroke-opacity="1" fill-opacity="1" visibility="visible" stroke-linecap="butt" stroke-linejoin="miter" stroke-miterlimit="4" id="two-82"></path><text transform="matrix(1 0 0 1 42 402)" font-family="sans-serif" font-size="18" line-height="17" text-anchor="middle" dominant-baseline="middle" alignment-baseline="middle" font-style="normal" font-weight="500" text-decoration="none" fill="#000" stroke="transparent" stroke-width="1" opacity="1" class="" visibility="visible" id="two-83">ans</text><path transform="matrix(1 0 0 1 0 0)" d="M 60 463.8 L 690 463.8 " fill="#fff" stroke="#000" stroke-width="1" stroke-opacity="1" fill-opacity="1" visibility="visible" stroke-linecap="butt" stroke-linejoin="miter" stroke-miterlimit="4" id="two-84"></path><path transform="matrix(1 0 0 1 0 0)" d="M 60 460.2 L 690 460.2 " fill="#fff" stroke="#000" stroke-width="1" stroke-opacity="1" fill-opacity="1" visibility="visible" stroke-linecap="butt" stroke-linejoin="miter" stroke-miterlimit="4" id="two-85"></path><path transform="matrix(1 0 0 1 0 0)" d="M 324 42 L 360 42 " fill="#fff" stroke="#ffffff" stroke-width="3" stroke-opacity="1" fill-opacity="1" visibility="visible" stroke-linecap="butt" stroke-linejoin="miter" stroke-miterlimit="4" id="two-86"></path><path transform="matrix(1 0 0 1 0 0)" d="M 324 42 L 360 102 " fill="#fff" stroke="#000" stroke-width="1" stroke-opacity="1" fill-opacity="1" visibility="visible" stroke-linecap="butt" stroke-linejoin="miter" stroke-miterlimit="4" id="two-87"></path><path transform="matrix(1 0 0 1 0 0)" d="M 324 102 L 360 102 " fill="#fff" stroke="#ffffff" stroke-width="3" stroke-opacity="1" fill-opacity="1" visibility="visible" stroke-linecap="butt" stroke-linejoin="miter" stroke-miterlimit="4" id="two-88"></path><path transform="matrix(1 0 0 1 0 0)" d="M 324 102 L 360 42 " fill="#fff" stroke="#000" stroke-width="1" stroke-opacity="1" fill-opacity="1" visibility="visible" stroke-linecap="butt" stroke-linejoin="miter" stroke-miterlimit="4" id="two-89"></path><path transform="matrix(1 0 0 1 0 0)" d="M 384 102 L 420 102 " fill="#fff" stroke="#ffffff" stroke-width="3" stroke-opacity="1" fill-opacity="1" visibility="visible" stroke-linecap="butt" stroke-linejoin="miter" stroke-miterlimit="4" id="two-90"></path><path transform="matrix(1 0 0 1 0 0)" d="M 384 102 L 420 42 " fill="#fff" stroke="#000" stroke-width="1" stroke-opacity="1" fill-opacity="1" visibility="visible" stroke-linecap="butt" stroke-linejoin="miter" stroke-miterlimit="4" id="two-91"></path><path transform="matrix(1 0 0 1 0 0)" d="M 384 162 L 420 162 " fill="#fff" stroke="#ffffff" stroke-width="3" stroke-opacity="1" fill-opacity="1" visibility="visible" stroke-linecap="butt" stroke-linejoin="miter" stroke-miterlimit="4" id="two-92"></path><path transform="matrix(1 0 0 1 0 0)" d="M 384 162 L 420 222 " fill="#fff" stroke="#000" stroke-width="1" stroke-opacity="1" fill-opacity="1" visibility="visible" stroke-linecap="butt" stroke-linejoin="miter" stroke-miterlimit="4" id="two-93"></path><path transform="matrix(1 0 0 1 0 0)" d="M 384 42 L 420 42 " fill="#fff" stroke="#ffffff" stroke-width="3" stroke-opacity="1" fill-opacity="1" visibility="visible" stroke-linecap="butt" stroke-linejoin="miter" stroke-miterlimit="4" id="two-94"></path><path transform="matrix(1 0 0 1 0 0)" d="M 384 42 L 420 162 " fill="#fff" stroke="#000" stroke-width="1" stroke-opacity="1" fill-opacity="1" visibility="visible" stroke-linecap="butt" stroke-linejoin="miter" stroke-miterlimit="4" id="two-95"></path><path transform="matrix(1 0 0 1 0 0)" d="M 384 222 L 420 222 " fill="#fff" stroke="#ffffff" stroke-width="3" stroke-opacity="1" fill-opacity="1" visibility="visible" stroke-linecap="butt" stroke-linejoin="miter" stroke-miterlimit="4" id="two-96"></path><path transform="matrix(1 0 0 1 0 0)" d="M 384 222 L 420 102 " fill="#fff" stroke="#000" stroke-width="1" stroke-opacity="1" fill-opacity="1" visibility="visible" stroke-linecap="butt" stroke-linejoin="miter" stroke-miterlimit="4" id="two-97"></path><path transform="matrix(1 0 0 1 0 0)" d="M 102 42 " fill="#fff" stroke="#000" stroke-width="1" stroke-opacity="1" fill-opacity="1" visibility="visible" stroke-linecap="butt" stroke-linejoin="miter" stroke-miterlimit="4" id="two-98"></path><path transform="matrix(1 0 0 1 102 42)" d="M -21 -21 L 21 -21 L 21 21 L -21 21 Z " fill="#cde9f7" stroke="#000000" stroke-width="1" stroke-opacity="1" fill-opacity="1" visibility="visible" stroke-linecap="butt" stroke-linejoin="miter" stroke-miterlimit="4" id="two-99"></path><text transform="matrix(1 0 0 1 102 42)" font-family="sans-serif" font-size="30" line-height="17" text-anchor="middle" dominant-baseline="middle" alignment-baseline="middle" font-style="normal" font-weight="500" text-decoration="none" fill="#000" stroke="transparent" stroke-width="1" opacity="1" class="" visibility="visible" id="two-100">X</text><path transform="matrix(1 0 0 1 0 0)" d="M 102 102 " fill="#fff" stroke="#000" stroke-width="1" stroke-opacity="1" fill-opacity="1" visibility="visible" stroke-linecap="butt" stroke-linejoin="miter" stroke-miterlimit="4" id="two-101"></path><path transform="matrix(1 0 0 1 102 102)" d="M -21 -21 L 21 -21 L 21 21 L -21 21 Z " fill="#cde9f7" stroke="#000000" stroke-width="1" stroke-opacity="1" fill-opacity="1" visibility="visible" stroke-linecap="butt" stroke-linejoin="miter" stroke-miterlimit="4" id="two-102"></path><text transform="matrix(1 0 0 1 102 102)" font-family="sans-serif" font-size="15" line-height="17" text-anchor="middle" dominant-baseline="middle" alignment-baseline="middle" font-style="normal" font-weight="500" text-decoration="none" fill="#000" stroke="transparent" stroke-width="1" opacity="1" class="" visibility="visible" id="two-103">U3</text><path transform="matrix(1 0 0 1 162 162)" d="M -21 -81 L 21 -81 L 21 81 L -21 81 Z " fill="#cde9f7" stroke="#000000" stroke-width="1" stroke-opacity="1" fill-opacity="1" visibility="visible" stroke-linecap="butt" stroke-linejoin="miter" stroke-miterlimit="4" id="two-104"></path><text transform="matrix(1 0 0 1 162 162)" font-family="sans-serif" font-size="9" line-height="17" text-anchor="middle" dominant-baseline="middle" alignment-baseline="middle" font-style="normal" font-weight="500" text-decoration="none" fill="#000" stroke="transparent" stroke-width="1" opacity="1" class="" visibility="visible" id="two-105">RZZZ</text><path transform="matrix(1 0 0 1 0 0)" d="M 222 102 L 222 222 " fill="#fff" stroke="#000" stroke-width="1" stroke-opacity="1" fill-opacity="1" visibility="visible" stroke-linecap="butt" stroke-linejoin="miter" stroke-miterlimit="4" id="two-106"></path><path transform="matrix(1 0 0 1 222 102)" d="M -21 -21 L 21 -21 L 21 21 L -21 21 Z " fill="#cde9f7" stroke="#000000" stroke-width="1" stroke-opacity="1" fill-opacity="1" visibility="visible" stroke-linecap="butt" stroke-linejoin="miter" stroke-miterlimit="4" id="two-107"></path><text transform="matrix(1 0 0 1 222 102)" font-family="sans-serif" font-size="10" line-height="17" text-anchor="middle" dominant-baseline="middle" alignment-baseline="middle" font-style="normal" font-weight="500" text-decoration="none" fill="#000" stroke="transparent" stroke-width="1" opacity="1" class="" visibility="visible" id="two-108">RZZ</text><path transform="matrix(1 0 0 1 222 222)" d="M -21 -21 L 21 -21 L 21 21 L -21 21 Z " fill="#cde9f7" stroke="#000000" stroke-width="1" stroke-opacity="1" fill-opacity="1" visibility="visible" stroke-linecap="butt" stroke-linejoin="miter" stroke-miterlimit="4" id="two-109"></path><text transform="matrix(1 0 0 1 222 222)" font-family="sans-serif" font-size="10" line-height="17" text-anchor="middle" dominant-baseline="middle" alignment-baseline="middle" font-style="normal" font-weight="500" text-decoration="none" fill="#000" stroke="transparent" stroke-width="1" opacity="1" class="" visibility="visible" id="two-110">RZZ</text><path transform="matrix(1 0 0 1 0 0)" d="M 282 42 L 282 222 " fill="#fff" stroke="#000" stroke-width="1" stroke-opacity="1" fill-opacity="1" visibility="visible" stroke-linecap="butt" stroke-linejoin="miter" stroke-miterlimit="4" id="two-111"></path><path transform="matrix(1 0 0 1 282 102)" d="M 12 0 C 12 6.627 6.627 12 0 12 C -6.628 12 -12 6.627 -12 0 C -12.001 -6.628 -6.628 -12 -0.001 -12 C 6.627 -12.001 12 -6.628 12 0 Z " fill="#ffffff" stroke="#000000" stroke-width="1" stroke-opacity="1" fill-opacity="1" visibility="visible" stroke-linecap="butt" stroke-linejoin="miter" stroke-miterlimit="4" id="two-112"></path><path transform="matrix(1 0 0 1 0 0)" d="M 282 114 L 282 90 " fill="#fff" stroke="#000" stroke-width="1" stroke-opacity="1" fill-opacity="1" visibility="visible" stroke-linecap="butt" stroke-linejoin="miter" stroke-miterlimit="4" id="two-113"></path><path transform="matrix(1 0 0 1 0 0)" d="M 294 102 L 270 102 " fill="#fff" stroke="#000" stroke-width="1" stroke-opacity="1" fill-opacity="1" visibility="visible" stroke-linecap="butt" stroke-linejoin="miter" stroke-miterlimit="4" id="two-114"></path><path transform="matrix(1 0 0 1 282 222)" d="M 12 0 C 12 6.627 6.627 12 0 12 C -6.628 12 -12 6.627 -12 0 C -12.001 -6.628 -6.628 -12 -0.001 -12 C 6.627 -12.001 12 -6.628 12 0 Z " fill="#ffffff" stroke="#000000" stroke-width="1" stroke-opacity="1" fill-opacity="1" visibility="visible" stroke-linecap="butt" stroke-linejoin="miter" stroke-miterlimit="4" id="two-115"></path><path transform="matrix(1 0 0 1 0 0)" d="M 282 234 L 282 210 " fill="#fff" stroke="#000" stroke-width="1" stroke-opacity="1" fill-opacity="1" visibility="visible" stroke-linecap="butt" stroke-linejoin="miter" stroke-miterlimit="4" id="two-116"></path><path transform="matrix(1 0 0 1 0 0)" d="M 294 222 L 270 222 " fill="#fff" stroke="#000" stroke-width="1" stroke-opacity="1" fill-opacity="1" visibility="visible" stroke-linecap="butt" stroke-linejoin="miter" stroke-miterlimit="4" id="two-117"></path><path transform="matrix(1 0 0 1 282 162)" d="M 6 0 C 6 3.313 3.313 6 0 6 C -3.314 6 -6 3.313 -6 0 C -6.001 -3.314 -3.314 -6 -0.001 -6 C 3.313 -6.001 6 -3.314 6 0 Z " fill="#000000" stroke="#000000" stroke-width="1" stroke-opacity="1" fill-opacity="1" visibility="visible" stroke-linecap="butt" stroke-linejoin="miter" stroke-miterlimit="4" id="two-118"></path><path transform="matrix(1 0 0 1 282 42)" d="M 6 0 C 6 3.313 3.313 6 0 6 C -3.314 6 -6 3.313 -6 0 C -6.001 -3.314 -3.314 -6 -0.001 -6 C 3.313 -6.001 6 -3.314 6 0 Z " fill="#ffffff" stroke="#000000" stroke-width="1" stroke-opacity="1" fill-opacity="1" visibility="visible" stroke-linecap="butt" stroke-linejoin="miter" stroke-miterlimit="4" id="two-119"></path><path transform="matrix(1 0 0 1 0 0)" d="M 342 162 L 342 222 " fill="#fff" stroke="#000" stroke-width="1" stroke-opacity="1" fill-opacity="1" visibility="visible" stroke-linecap="butt" stroke-linejoin="miter" stroke-miterlimit="4" id="two-120"></path><path transform="matrix(1 0 0 1 342 162)" d="M 6 0 C 6 3.313 3.313 6 0 6 C -3.314 6 -6 3.313 -6 0 C -6.001 -3.314 -3.314 -6 -0.001 -6 C 3.313 -6.001 6 -3.314 6 0 Z " fill="#000000" stroke="#000000" stroke-width="1" stroke-opacity="1" fill-opacity="1" visibility="visible" stroke-linecap="butt" stroke-linejoin="miter" stroke-miterlimit="4" id="two-121"></path><path transform="matrix(1 0 0 1 342 222)" d="M 6 0 C 6 3.313 3.313 6 0 6 C -3.314 6 -6 3.313 -6 0 C -6.001 -3.314 -3.314 -6 -0.001 -6 C 3.313 -6.001 6 -3.314 6 0 Z " fill="#000000" stroke="#000000" stroke-width="1" stroke-opacity="1" fill-opacity="1" visibility="visible" stroke-linecap="butt" stroke-linejoin="miter" stroke-miterlimit="4" id="two-122"></path><path transform="matrix(1 0 0 1 0 0)" d="M 462 102 " fill="#fff" stroke="#000" stroke-width="1" stroke-opacity="1" fill-opacity="1" visibility="visible" stroke-linecap="butt" stroke-linejoin="miter" stroke-miterlimit="4" id="two-123"></path><path transform="matrix(1 0 0 1 0 0)" d="M 460.2 102 L 460.2 402 " fill="#fff" stroke="#000" stroke-width="1" stroke-opacity="1" fill-opacity="1" visibility="visible" stroke-linecap="butt" stroke-linejoin="miter" stroke-miterlimit="4" id="two-124"></path><path transform="matrix(1 0 0 1 0 0)" d="M 463.8 102 L 463.8 402 " fill="#fff" stroke="#000" stroke-width="1" stroke-opacity="1" fill-opacity="1" visibility="visible" stroke-linecap="butt" stroke-linejoin="miter" stroke-miterlimit="4" id="two-125"></path><path transform="matrix(1 0 0 1 462 402)" d="M 12 0 C 12 6.627 6.627 12 0 12 C -6.628 12 -12 6.627 -12 0 C -12.001 -6.628 -6.628 -12 -0.001 -12 C 6.627 -12.001 12 -6.628 12 0 Z " fill="#ffffff" stroke="#000000" stroke-width="1" stroke-opacity="1" fill-opacity="1" visibility="visible" stroke-linecap="butt" stroke-linejoin="miter" stroke-miterlimit="4" id="two-126"></path><path transform="matrix(1 0 0 1 0 0)" d="M 462 414 L 462 390 " fill="#fff" stroke="#000" stroke-width="1" stroke-opacity="1" fill-opacity="1" visibility="visible" stroke-linecap="butt" stroke-linejoin="miter" stroke-miterlimit="4" id="two-127"></path><path transform="matrix(1 0 0 1 0 0)" d="M 474 402 L 450 402 " fill="#fff" stroke="#000" stroke-width="1" stroke-opacity="1" fill-opacity="1" visibility="visible" stroke-linecap="butt" stroke-linejoin="miter" stroke-miterlimit="4" id="two-128"></path><path transform="matrix(1 0 0 1 462 102)" d="M -21 -21 L 21 -21 L 21 21 L -21 21 Z " fill="#ffffff" stroke="#000000" stroke-width="1" stroke-opacity="1" fill-opacity="1" visibility="visible" stroke-linecap="butt" stroke-linejoin="miter" stroke-miterlimit="4" id="two-129"></path><path transform="matrix(1 0 0 1 462 102)" d="M -13 0 C -13 0 -13.045 -0.969 -12.779 -2.389 C -12.646 -3.099 -12.384 -4.023 -12.123 -4.697 C -11.862 -5.37 -11.434 -6.23 -11.053 -6.844 C -10.673 -7.458 -10.094 -8.225 -9.608 -8.759 C -9.121 -9.292 -8.411 -9.939 -7.835 -10.375 C -7.258 -10.81 -6.442 -11.316 -5.795 -11.638 C -5.149 -11.96 -4.253 -12.307 -3.558 -12.504 C -2.863 -12.702 -1.919 -12.878 -1.2 -12.945 C -0.481 -13.012 0.48 -13.012 1.199 -12.945 C 1.918 -12.878 2.862 -12.702 3.557 -12.504 C 4.252 -12.307 5.148 -11.96 5.794 -11.638 C 6.441 -11.316 7.257 -10.81 7.834 -10.375 C 8.41 -9.939 9.12 -9.292 9.607 -8.759 C 10.093 -8.225 10.672 -7.458 11.052 -6.844 C 11.433 -6.23 11.861 -5.37 12.122 -4.697 C 12.383 -4.023 12.645 -3.099 12.778 -2.389 C 12.911 -1.679 13 -0.723 13 -0.001 L 12 -0.001 C 12 -0.001 12.044 -0.957 11.769 -2.342 C 11.631 -3.034 11.356 -3.941 11.086 -4.593 C 10.816 -5.245 10.369 -6.08 9.977 -6.667 C 9.585 -7.254 8.984 -7.987 8.485 -8.486 C 7.986 -8.985 7.253 -9.586 6.666 -9.978 C 6.079 -10.37 5.244 -10.817 4.592 -11.087 C 3.94 -11.357 3.033 -11.632 2.341 -11.77 C 1.648 -11.908 0.705 -12 -0.001 -12 C -0.706 -12 -1.649 -11.908 -2.342 -11.77 C -3.034 -11.632 -3.941 -11.357 -4.593 -11.087 C -5.245 -10.817 -6.08 -10.37 -6.667 -9.978 C -7.254 -9.586 -7.987 -8.985 -8.486 -8.486 C -8.985 -7.987 -9.586 -7.254 -9.978 -6.667 C -10.37 -6.08 -10.817 -5.245 -11.087 -4.593 C -11.357 -3.941 -11.632 -3.034 -11.77 -2.342 C -11.908 -1.649 -12 -0.706 -12 0 L -13 0 Z " fill="#000000" stroke="undefined" stroke-width="1" stroke-opacity="1" fill-opacity="1" visibility="visible" stroke-linecap="butt" stroke-linejoin="miter" stroke-miterlimit="4" id="two-130"></path><path transform="matrix(1 0 0 1 0 0)" d="M 462 104.1 L 472.58 89.537 " fill="#fff" stroke="#000" stroke-width="1" stroke-opacity="1" fill-opacity="1" visibility="visible" stroke-linecap="butt" stroke-linejoin="miter" stroke-miterlimit="4" id="two-131"></path><text transform="matrix(1 0 0 1 462 114)" font-family="sans-serif" font-size="16" line-height="17" text-anchor="middle" dominant-baseline="middle" alignment-baseline="middle" font-style="normal" font-weight="500" text-decoration="none" fill="#000" stroke="transparent" stroke-width="1" opacity="1" class="" visibility="visible" id="two-132">X</text><path transform="matrix(1 0 0 1 0 0)" d="M 522 162 " fill="#fff" stroke="#000" stroke-width="1" stroke-opacity="1" fill-opacity="1" visibility="visible" stroke-linecap="butt" stroke-linejoin="miter" stroke-miterlimit="4" id="two-133"></path><path transform="matrix(1 0 0 1 0 0)" d="M 520.2 162 L 520.2 462 " fill="#fff" stroke="#000" stroke-width="1" stroke-opacity="1" fill-opacity="1" visibility="visible" stroke-linecap="butt" stroke-linejoin="miter" stroke-miterlimit="4" id="two-134"></path><path transform="matrix(1 0 0 1 0 0)" d="M 523.799 162 L 523.799 462 " fill="#fff" stroke="#000" stroke-width="1" stroke-opacity="1" fill-opacity="1" visibility="visible" stroke-linecap="butt" stroke-linejoin="miter" stroke-miterlimit="4" id="two-135"></path><path transform="matrix(1 0 0 1 522 462)" d="M 12 0 C 12 6.627 6.627 12 0 12 C -6.628 12 -12 6.627 -12 0 C -12.001 -6.628 -6.628 -12 -0.001 -12 C 6.627 -12.001 12 -6.628 12 0 Z " fill="#ffffff" stroke="#000000" stroke-width="1" stroke-opacity="1" fill-opacity="1" visibility="visible" stroke-linecap="butt" stroke-linejoin="miter" stroke-miterlimit="4" id="two-136"></path><path transform="matrix(1 0 0 1 0 0)" d="M 522 474 L 522 450 " fill="#fff" stroke="#000" stroke-width="1" stroke-opacity="1" fill-opacity="1" visibility="visible" stroke-linecap="butt" stroke-linejoin="miter" stroke-miterlimit="4" id="two-137"></path><path transform="matrix(1 0 0 1 0 0)" d="M 534 462 L 510 462 " fill="#fff" stroke="#000" stroke-width="1" stroke-opacity="1" fill-opacity="1" visibility="visible" stroke-linecap="butt" stroke-linejoin="miter" stroke-miterlimit="4" id="two-138"></path><path transform="matrix(1 0 0 1 522 162)" d="M -21 -21 L 21 -21 L 21 21 L -21 21 Z " fill="#ffffff" stroke="#000000" stroke-width="1" stroke-opacity="1" fill-opacity="1" visibility="visible" stroke-linecap="butt" stroke-linejoin="miter" stroke-miterlimit="4" id="two-139"></path><path transform="matrix(1 0 0 1 522 162)" d="M -13 0 C -13 0 -13.045 -0.969 -12.779 -2.389 C -12.646 -3.099 -12.384 -4.023 -12.123 -4.697 C -11.862 -5.37 -11.434 -6.23 -11.053 -6.844 C -10.673 -7.458 -10.094 -8.225 -9.608 -8.759 C -9.121 -9.292 -8.411 -9.939 -7.835 -10.375 C -7.258 -10.81 -6.442 -11.316 -5.795 -11.638 C -5.149 -11.96 -4.253 -12.307 -3.558 -12.504 C -2.863 -12.702 -1.919 -12.878 -1.2 -12.945 C -0.481 -13.012 0.48 -13.012 1.199 -12.945 C 1.918 -12.878 2.862 -12.702 3.557 -12.504 C 4.252 -12.307 5.148 -11.96 5.794 -11.638 C 6.441 -11.316 7.257 -10.81 7.834 -10.375 C 8.41 -9.939 9.12 -9.292 9.607 -8.759 C 10.093 -8.225 10.672 -7.458 11.052 -6.844 C 11.433 -6.23 11.861 -5.37 12.122 -4.697 C 12.383 -4.023 12.645 -3.099 12.778 -2.389 C 12.911 -1.679 13 -0.723 13 -0.001 L 12 -0.001 C 12 -0.001 12.044 -0.957 11.769 -2.342 C 11.631 -3.034 11.356 -3.941 11.086 -4.593 C 10.816 -5.245 10.369 -6.08 9.977 -6.667 C 9.585 -7.254 8.984 -7.987 8.485 -8.486 C 7.986 -8.985 7.253 -9.586 6.666 -9.978 C 6.079 -10.37 5.244 -10.817 4.592 -11.087 C 3.94 -11.357 3.033 -11.632 2.341 -11.77 C 1.648 -11.908 0.705 -12 -0.001 -12 C -0.706 -12 -1.649 -11.908 -2.342 -11.77 C -3.034 -11.632 -3.941 -11.357 -4.593 -11.087 C -5.245 -10.817 -6.08 -10.37 -6.667 -9.978 C -7.254 -9.586 -7.987 -8.985 -8.486 -8.486 C -8.985 -7.987 -9.586 -7.254 -9.978 -6.667 C -10.37 -6.08 -10.817 -5.245 -11.087 -4.593 C -11.357 -3.941 -11.632 -3.034 -11.77 -2.342 C -11.908 -1.649 -12 -0.706 -12 0 L -13 0 Z " fill="#000000" stroke="undefined" stroke-width="1" stroke-opacity="1" fill-opacity="1" visibility="visible" stroke-linecap="butt" stroke-linejoin="miter" stroke-miterlimit="4" id="two-140"></path><path transform="matrix(1 0 0 1 0 0)" d="M 522 164.1 L 532.58 149.537 " fill="#fff" stroke="#000" stroke-width="1" stroke-opacity="1" fill-opacity="1" visibility="visible" stroke-linecap="butt" stroke-linejoin="miter" stroke-miterlimit="4" id="two-141"></path><text transform="matrix(1 0 0 1 522 174)" font-family="sans-serif" font-size="16" line-height="17" text-anchor="middle" dominant-baseline="middle" alignment-baseline="middle" font-style="normal" font-weight="500" text-decoration="none" fill="#000" stroke="transparent" stroke-width="1" opacity="1" class="" visibility="visible" id="two-142">X</text><path transform="matrix(1 0 0 1 0 0)" d="M 582 42 L 582 162 " fill="#fff" stroke="#000" stroke-width="1" stroke-opacity="1" fill-opacity="1" visibility="visible" stroke-linecap="butt" stroke-linejoin="miter" stroke-miterlimit="4" id="two-143"></path><path transform="matrix(1 0 0 1 0 0)" d="M 580.2 162 L 580.2 402 " fill="#fff" stroke="#000" stroke-width="1" stroke-opacity="1" fill-opacity="1" visibility="visible" stroke-linecap="butt" stroke-linejoin="miter" stroke-miterlimit="4" id="two-144"></path><path transform="matrix(1 0 0 1 0 0)" d="M 583.8 162 L 583.8 402 " fill="#fff" stroke="#000" stroke-width="1" stroke-opacity="1" fill-opacity="1" visibility="visible" stroke-linecap="butt" stroke-linejoin="miter" stroke-miterlimit="4" id="two-145"></path><path transform="matrix(1 0 0 1 582 402)" d="M 6 0 C 6 3.313 3.313 6 0 6 C -3.314 6 -6 3.313 -6 0 C -6.001 -3.314 -3.314 -6 -0.001 -6 C 3.313 -6.001 6 -3.314 6 0 Z " fill="#000000" stroke="#000000" stroke-width="1" stroke-opacity="1" fill-opacity="1" visibility="visible" stroke-linecap="butt" stroke-linejoin="miter" stroke-miterlimit="4" id="two-146"></path><path transform="matrix(1 0 0 1 582 42)" d="M -21 -21 L 21 -21 L 21 21 L -21 21 Z " fill="#cde9f7" stroke="#000000" stroke-width="1" stroke-opacity="1" fill-opacity="1" visibility="visible" stroke-linecap="butt" stroke-linejoin="miter" stroke-miterlimit="4" id="two-147"></path><text transform="matrix(1 0 0 1 582 42)" font-family="sans-serif" font-size="7.5" line-height="17" text-anchor="middle" dominant-baseline="middle" alignment-baseline="middle" font-style="normal" font-weight="500" text-decoration="none" fill="#000" stroke="transparent" stroke-width="1" opacity="1" class="" visibility="visible" id="two-148">V(Θ)</text><path transform="matrix(1 0 0 1 582 162)" d="M -21 -21 L 21 -21 L 21 21 L -21 21 Z " fill="#cde9f7" stroke="#000000" stroke-width="1" stroke-opacity="1" fill-opacity="1" visibility="visible" stroke-linecap="butt" stroke-linejoin="miter" stroke-miterlimit="4" id="two-149"></path><text transform="matrix(1 0 0 1 582 162)" font-family="sans-serif" font-size="7.5" line-height="17" text-anchor="middle" dominant-baseline="middle" alignment-baseline="middle" font-style="normal" font-weight="500" text-decoration="none" fill="#000" stroke="transparent" stroke-width="1" opacity="1" class="" visibility="visible" id="two-150">V(Θ)</text><path transform="matrix(1 0 0 1 0 0)" d="M 642 102 " fill="#fff" stroke="#000" stroke-width="1" stroke-opacity="1" fill-opacity="1" visibility="visible" stroke-linecap="butt" stroke-linejoin="miter" stroke-miterlimit="4" id="two-151"></path><path transform="matrix(1 0 0 1 642 402)" d="M -21 -21 L 21 -21 L 21 21 L -21 21 Z " fill="#cde9f7" stroke="#000000" stroke-width="1" stroke-opacity="1" fill-opacity="1" visibility="visible" stroke-linecap="butt" stroke-linejoin="miter" stroke-miterlimit="4" id="two-152"></path><text transform="matrix(1 0 0 1 642 402)" font-family="sans-serif" font-size="30" line-height="17" text-anchor="middle" dominant-baseline="middle" alignment-baseline="middle" font-style="normal" font-weight="500" text-decoration="none" fill="#000" stroke="transparent" stroke-width="1" opacity="1" class="" visibility="visible" id="two-153">X</text></g></svg>
