<svg version="1.1" width="564" height="330" style="overflow: hidden;"><defs></defs><g id="two-11" transform="matrix(1 0 0 1 0 0)" opacity="1"><path transform="matrix(1 0 0 1 0 0)" d="M 60 42 L 510 42 " fill="#fff" stroke="#000" stroke-width="1" stroke-opacity="1" fill-opacity="1" visibility="visible" stroke-linecap="butt" stroke-linejoin="miter" stroke-miterlimit="4" id="two-12"></path><text transform="matrix(1 0 0 1 42 42)" font-family="sans-serif" font-size="18" line-height="17" text-anchor="middle" dominant-baseline="middle" alignment-baseline="middle" font-style="normal" font-weight="500" text-decoration="none" fill="#000" stroke="transparent" stroke-width="1" opacity="1" class="" visibility="visible" id="two-13">|ψ⟩</text><path transform="matrix(1 0 0 1 0 0)" d="M 60 102 L 510 102 " fill="#fff" stroke="#000" stroke-width="1" stroke-opacity="1" fill-opacity="1" visibility="visible" stroke-linecap="butt" stroke-linejoin="miter" stroke-miterlimit="4" id="two-14"></path><text transform="matrix(1 0 0 1 42 102)" font-family="sans-serif" font-size="18" line-height="17" text-anchor="middle" dominant-baseline="middle" alignment-baseline="middle" font-style="normal" font-weight="500" text-decoration="none" fill="#000" stroke="transparent" stroke-width="1" opacity="1" class="" visibility="visible" id="two-15">|0⟩</text><path transform="matrix(1 0 0 1 0 0)" d="M 60 162 L 510 162 " fill="#fff" stroke="#000" stroke-width="1" stroke-opacity="1" fill-opacity="1" visibility="visible" stroke-linecap="butt" stroke-linejoin="miter" stroke-miterlimit="4" id="two-16"></path><text transform="matrix(1 0 0 1 42 162)" font-family="sans-serif" font-size="18" line-height="17" text-anchor="middle" dominant-baseline="middle" alignment-baseline="middle" font-style="normal" font-weight="500" text-decoration="none" fill="#000" stroke="transparent" stroke-width="1" opacity="1" class="" visibility="visible" id="two-17">|0⟩</text><text transform="matrix(1 0 0 1 522 162)" font-family="sans-serif" font-size="18" line-height="17" text-anchor="middle" dominant-baseline="middle" alignment-baseline="middle" font-style="normal" font-weight="500" text-decoration="none" fill="#000" stroke="transparent" stroke-width="1" opacity="1" class="" visibility="visible" id="two-18">|ψ⟩</text><path transform="matrix(1 0 0 1 0 0)" d="M 60 223.8 L 510 223.8 " fill="#fff" stroke="#000" stroke-width="1" stroke-opacity="1" fill-opacity="1" visibility="visible" stroke-linecap="butt" stroke-linejoin="miter" stroke-miterlimit="4" id="two-19"></path><path transform="matrix(1 0 0 1 0 0)" d="M 60 220.2 L 510 220.2 " fill="#fff" stroke="#000" stroke-width="1" stroke-opacity="1" fill-opacity="1" visibility="visible" stroke-linecap="butt" stroke-linejoin="miter" stroke-miterlimit="4" id="two-20"></path><text transform="matrix(1 0 0 1 42 222)" font-family="sans-serif" font-size="18" line-height="17" text-anchor="middle" dominant-baseline="middle" alignment-baseline="middle" font-style="normal" font-weight="500" text-decoration="none" fill="#000" stroke="transparent" stroke-width="1" opacity="1" class="" visibility="visible" id="two-21">m0</text><path transform="matrix(1 0 0 1 0 0)" d="M 60 283.8 L 510 283.8 " fill="#fff" stroke="#000" stroke-width="1" stroke-opacity="1" fill-opacity="1" visibility="visible" stroke-linecap="butt" stroke-linejoin="miter" stroke-miterlimit="4" id="two-22"></path><path transform="matrix(1 0 0 1 0 0)" d="M 60 280.2 L 510 280.2 " fill="#fff" stroke="#000" stroke-width="1" stroke-opacity="1" fill-opacity="1" visibility="visible" stroke-linecap="butt" stroke-linejoin="miter" stroke-miterlimit="4" id="two-23"></path><text transform="matrix(1 0 0 1 42 282)" font-family="sans-serif" font-size="18" line-height="17" text-anchor="middle" dominant-baseline="middle" alignment-baseline="middle" font-style="normal" font-weight="500" text-decoration="none" fill="#000" stroke="transparent" stroke-width="1" opacity="1" class="" visibility="visible" id="two-24">m1</text><path transform="matrix(1 0 0 1 0 0)" d="M 102 102 " fill="#fff" stroke="#000" stroke-width="1" stroke-opacity="1" fill-opacity="1" visibility="visible" stroke-linecap="butt" stroke-linejoin="miter" stroke-miterlimit="4" id="two-25"></path><path transform="matrix(1 0 0 1 102 102)" d="M -21 -21 L 21 -21 L 21 21 L -21 21 Z " fill="#cde9f7" stroke="#000000" stroke-width="1" stroke-opacity="1" fill-opacity="1" visibility="visible" stroke-linecap="butt" stroke-linejoin="miter" stroke-miterlimit="4" id="two-26"></path><text transform="matrix(1 0 0 1 102 102)" font-family="sans-serif" font-size="30" line-height="17" text-anchor="middle" dominant-baseline="middle" alignment-baseline="middle" font-style="normal" font-weight="500" text-decoration="none" fill="#000" stroke="transparent" stroke-width="1" opacity="1" class="" visibility="visible" id="two-27">H</text><path transform="matrix(1 0 0 1 0 0)" d="M 162 102 L 162 162 " fill="#fff" stroke="#000" stroke-width="1" stroke-opacity="1" fill-opacity="1" visibility="visible" stroke-linecap="butt" stroke-linejoin="miter" stroke-miterlimit="4" id="two-28"></path><path transform="matrix(1 0 0 1 162 162)" d="M 12 0 C 12 6.627 6.627 12 0 12 C -6.628 12 -12 6.627 -12 0 C -12.001 -6.628 -6.628 -12 -0.001 -12 C 6.627 -12.001 12 -6.628 12 0 Z " fill="#ffffff" stroke="#000000" stroke-width="1" stroke-opacity="1" fill-opacity="1" visibility="visible" stroke-linecap="butt" stroke-linejoin="miter" stroke-miterlimit="4" id="two-29"></path><path transform="matrix(1 0 0 1 0 0)" d="M 162 174 L 162 150 " fill="#fff" stroke="#000" stroke-width="1" stroke-opacity="1" fill-opacity="1" visibility="visible" stroke-linecap="butt" stroke-linejoin="miter" stroke-miterlimit="4" id="two-30"></path><path transform="matrix(1 0 0 1 0 0)" d="M 174 162 L 150 162 " fill="#fff" stroke="#000" stroke-width="1" stroke-opacity="1" fill-opacity="1" visibility="visible" stroke-linecap="butt" stroke-linejoin="miter" stroke-miterlimit="4" id="two-31"></path><path transform="matrix(1 0 0 1 162 102)" d="M 6 0 C 6 3.313 3.313 6 0 6 C -3.314 6 -6 3.313 -6 0 C -6.001 -3.314 -3.314 -6 -0.001 -6 C 3.313 -6.001 6 -3.314 6 0 Z " fill="#000000" stroke="#000000" stroke-width="1" stroke-opacity="1" fill-opacity="1" visibility="visible" stroke-linecap="butt" stroke-linejoin="miter" stroke-miterlimit="4" id="two-32"></path><path transform="matrix(1 0 0 1 0 0)" d="M 222 42 L 222 102 " fill="#fff" stroke="#000" stroke-width="1" stroke-opacity="1" fill-opacity="1" visibility="visible" stroke-linecap="butt" stroke-linejoin="miter" stroke-miterlimit="4" id="two-33"></path><path transform="matrix(1 0 0 1 222 102)" d="M 12 0 C 12 6.627 6.627 12 0 12 C -6.628 12 -12 6.627 -12 0 C -12.001 -6.628 -6.628 -12 -0.001 -12 C 6.627 -12.001 12 -6.628 12 0 Z " fill="#ffffff" stroke="#000000" stroke-width="1" stroke-opacity="1" fill-opacity="1" visibility="visible" stroke-linecap="butt" stroke-linejoin="miter" stroke-miterlimit="4" id="two-34"></path><path transform="matrix(1 0 0 1 0 0)" d="M 222 114 L 222 90 " fill="#fff" stroke="#000" stroke-width="1" stroke-opacity="1" fill-opacity="1" visibility="visible" stroke-linecap="butt" stroke-linejoin="miter" stroke-miterlimit="4" id="two-35"></path><path transform="matrix(1 0 0 1 0 0)" d="M 234 102 L 210 102 " fill="#fff" stroke="#000" stroke-width="1" stroke-opacity="1" fill-opacity="1" visibility="visible" stroke-linecap="butt" stroke-linejoin="miter" stroke-miterlimit="4" id="two-36"></path><path transform="matrix(1 0 0 1 222 42)" d="M 6 0 C 6 3.313 3.313 6 0 6 C -3.314 6 -6 3.313 -6 0 C -6.001 -3.314 -3.314 -6 -0.001 -6 C 3.313 -6.001 6 -3.314 6 0 Z " fill="#000000" stroke="#000000" stroke-width="1" stroke-opacity="1" fill-opacity="1" visibility="visible" stroke-linecap="butt" stroke-linejoin="miter" stroke-miterlimit="4" id="two-37"></path><path transform="matrix(1 0 0 1 0 0)" d="M 282 42 " fill="#fff" stroke="#000" stroke-width="1" stroke-opacity="1" fill-opacity="1" visibility="visible" stroke-linecap="butt" stroke-linejoin="miter" stroke-miterlimit="4" id="two-38"></path><path transform="matrix(1 0 0 1 0 0)" d="M 280.2 42 L 280.2 222 " fill="#fff" stroke="#000" stroke-width="1" stroke-opacity="1" fill-opacity="1" visibility="visible" stroke-linecap="butt" stroke-linejoin="miter" stroke-miterlimit="4" id="two-39"></path><path transform="matrix(1 0 0 1 0 0)" d="M 283.8 42 L 283.8 222 " fill="#fff" stroke="#000" stroke-width="1" stroke-opacity="1" fill-opacity="1" visibility="visible" stroke-linecap="butt" stroke-linejoin="miter" stroke-miterlimit="4" id="two-40"></path><path transform="matrix(1 0 0 1 282 222)" d="M 12 0 C 12 6.627 6.627 12 0 12 C -6.628 12 -12 6.627 -12 0 C -12.001 -6.628 -6.628 -12 -0.001 -12 C 6.627 -12.001 12 -6.628 12 0 Z " fill="#ffffff" stroke="#000000" stroke-width="1" stroke-opacity="1" fill-opacity="1" visibility="visible" stroke-linecap="butt" stroke-linejoin="miter" stroke-miterlimit="4" id="two-41"></path><path transform="matrix(1 0 0 1 0 0)" d="M 282 234 L 282 210 " fill="#fff" stroke="#000" stroke-width="1" stroke-opacity="1" fill-opacity="1" visibility="visible" stroke-linecap="butt" stroke-linejoin="miter" stroke-miterlimit="4" id="two-42"></path><path transform="matrix(1 0 0 1 0 0)" d="M 294 222 L 270 222 " fill="#fff" stroke="#000" stroke-width="1" stroke-opacity="1" fill-opacity="1" visibility="visible" stroke-linecap="butt" stroke-linejoin="miter" stroke-miterlimit="4" id="two-43"></path><path transform="matrix(1 0 0 1 282 42)" d="M -21 -21 L 21 -21 L 21 21 L -21 21 Z " fill="#ffffff" stroke="#000000" stroke-width="1" stroke-opacity="1" fill-opacity="1" visibility="visible" stroke-linecap="butt" stroke-linejoin="miter" stroke-miterlimit="4" id="two-44"></path><path transform="matrix(1 0 0 1 282 42)" d="M -13 0 C -13 0 -13.045 -0.969 -12.779 -2.389 C -12.646 -3.099 -12.384 -4.023 -12.123 -4.697 C -11.862 -5.37 -11.434 -6.23 -11.053 -6.844 C -10.673 -7.458 -10.094 -8.225 -9.608 -8.759 C -9.121 -9.292 -8.411 -9.939 -7.835 -10.375 C -7.258 -10.81 -6.442 -11.316 -5.795 -11.638 C -5.149 -11.96 -4.253 -12.307 -3.558 -12.504 C -2.863 -12.702 -1.919 -12.878 -1.2 -12.945 C -0.481 -13.012 0.48 -13.012 1.199 -12.945 C 1.918 -12.878 2.862 -12.702 3.557 -12.504 C 4.252 -12.307 5.148 -11.96 5.794 -11.638 C 6.441 -11.316 7.257 -10.81 7.834 -10.375 C 8.41 -9.939 9.12 -9.292 9.607 -8.759 C 10.093 -8.225 10.672 -7.458 11.052 -6.844 C 11.433 -6.23 11.861 -5.37 12.122 -4.697 C 12.383 -4.023 12.645 -3.099 12.778 -2.389 C 12.911 -1.679 13 -0.723 13 -0.001 L 12 -0.001 C 12 -0.001 12.044 -0.957 11.769 -2.342 C 11.631 -3.034 11.356 -3.941 11.086 -4.593 C 10.816 -5.245 10.369 -6.08 9.977 -6.667 C 9.585 -7.254 8.984 -7.987 8.485 -8.486 C 7.986 -8.985 7.253 -9.586 6.666 -9.978 C 6.079 -10.37 5.244 -10.817 4.592 -11.087 C 3.94 -11.357 3.033 -11.632 2.341 -11.77 C 1.648 -11.908 0.705 -12 -0.001 -12 C -0.706 -12 -1.649 -11.908 -2.342 -11.77 C -3.034 -11.632 -3.941 -11.357 -4.593 -11.087 C -5.245 -10.817 -6.08 -10.37 -6.667 -9.978 C -7.254 -9.586 -7.987 -8.985 -8.486 -8.486 C -8.985 -7.987 -9.586 -7.254 -9.978 -6.667 C -10.37 -6.08 -10.817 -5.245 -11.087 -4.593 C -11.357 -3.941 -11.632 -3.034 -11.77 -2.342 C -11.908 -1.649 -12 -0.706 -12 0 L -13 0 Z " fill="#000000" stroke="undefined" stroke-width="1" stroke-opacity="1" fill-opacity="1" visibility="visible" stroke-linecap="butt" stroke-linejoin="miter" stroke-miterlimit="4" id="two-45"></path><path transform="matrix(1 0 0 1 0 0)" d="M 282 44.1 L 292.58 29.537 " fill="#fff" stroke="#000" stroke-width="1" stroke-opacity="1" fill-opacity="1" visibility="visible" stroke-linecap="butt" stroke-linejoin="miter" stroke-miterlimit="4" id="two-46"></path><text transform="matrix(1 0 0 1 282 54)" font-family="sans-serif" font-size="16" line-height="17" text-anchor="middle" dominant-baseline="middle" alignment-baseline="middle" font-style="normal" font-weight="500" text-decoration="none" fill="#000" stroke="transparent" stroke-width="1" opacity="1" class="" visibility="visible" id="two-47">X</text><path transform="matrix(1 0 0 1 0 0)" d="M 342 102 " fill="#fff" stroke="#000" stroke-width="1" stroke-opacity="1" fill-opacity="1" visibility="visible" stroke-linecap="butt" stroke-linejoin="miter" stroke-miterlimit="4" id="two-48"></path><path transform="matrix(1 0 0 1 0 0)" d="M 340.2 102 L 340.2 282 " fill="#fff" stroke="#000" stroke-width="1" stroke-opacity="1" fill-opacity="1" visibility="visible" stroke-linecap="butt" stroke-linejoin="miter" stroke-miterlimit="4" id="two-49"></path><path transform="matrix(1 0 0 1 0 0)" d="M 343.8 102 L 343.8 282 " fill="#fff" stroke="#000" stroke-width="1" stroke-opacity="1" fill-opacity="1" visibility="visible" stroke-linecap="butt" stroke-linejoin="miter" stroke-miterlimit="4" id="two-50"></path><path transform="matrix(1 0 0 1 342 282)" d="M 12 0 C 12 6.627 6.627 12 0 12 C -6.628 12 -12 6.627 -12 0 C -12.001 -6.628 -6.628 -12 -0.001 -12 C 6.627 -12.001 12 -6.628 12 0 Z " fill="#ffffff" stroke="#000000" stroke-width="1" stroke-opacity="1" fill-opacity="1" visibility="visible" stroke-linecap="butt" stroke-linejoin="miter" stroke-miterlimit="4" id="two-51"></path><path transform="matrix(1 0 0 1 0 0)" d="M 342 294 L 342 270 " fill="#fff" stroke="#000" stroke-width="1" stroke-opacity="1" fill-opacity="1" visibility="visible" stroke-linecap="butt" stroke-linejoin="miter" stroke-miterlimit="4" id="two-52"></path><path transform="matrix(1 0 0 1 0 0)" d="M 354 282 L 330 282 " fill="#fff" stroke="#000" stroke-width="1" stroke-opacity="1" fill-opacity="1" visibility="visible" stroke-linecap="butt" stroke-linejoin="miter" stroke-miterlimit="4" id="two-53"></path><path transform="matrix(1 0 0 1 342 102)" d="M -21 -21 L 21 -21 L 21 21 L -21 21 Z " fill="#ffffff" stroke="#000000" stroke-width="1" stroke-opacity="1" fill-opacity="1" visibility="visible" stroke-linecap="butt" stroke-linejoin="miter" stroke-miterlimit="4" id="two-54"></path><path transform="matrix(1 0 0 1 342 102)" d="M -13 0 C -13 0 -13.045 -0.969 -12.779 -2.389 C -12.646 -3.099 -12.384 -4.023 -12.123 -4.697 C -11.862 -5.37 -11.434 -6.23 -11.053 -6.844 C -10.673 -7.458 -10.094 -8.225 -9.608 -8.759 C -9.121 -9.292 -8.411 -9.939 -7.835 -10.375 C -7.258 -10.81 -6.442 -11.316 -5.795 -11.638 C -5.149 -11.96 -4.253 -12.307 -3.558 -12.504 C -2.863 -12.702 -1.919 -12.878 -1.2 -12.945 C -0.481 -13.012 0.48 -13.012 1.199 -12.945 C 1.918 -12.878 2.862 -12.702 3.557 -12.504 C 4.252 -12.307 5.148 -11.96 5.794 -11.638 C 6.441 -11.316 7.257 -10.81 7.834 -10.375 C 8.41 -9.939 9.12 -9.292 9.607 -8.759 C 10.093 -8.225 10.672 -7.458 11.052 -6.844 C 11.433 -6.23 11.861 -5.37 12.122 -4.697 C 12.383 -4.023 12.645 -3.099 12.778 -2.389 C 12.911 -1.679 13 -0.723 13 -0.001 L 12 -0.001 C 12 -0.001 12.044 -0.957 11.769 -2.342 C 11.631 -3.034 11.356 -3.941 11.086 -4.593 C 10.816 -5.245 10.369 -6.08 9.977 -6.667 C 9.585 -7.254 8.984 -7.987 8.485 -8.486 C 7.986 -8.985 7.253 -9.586 6.666 -9.978 C 6.079 -10.37 5.244 -10.817 4.592 -11.087 C 3.94 -11.357 3.033 -11.632 2.341 -11.77 C 1.648 -11.908 0.705 -12 -0.001 -12 C -0.706 -12 -1.649 -11.908 -2.342 -11.77 C -3.034 -11.632 -3.941 -11.357 -4.593 -11.087 C -5.245 -10.817 -6.08 -10.37 -6.667 -9.978 C -7.254 -9.586 -7.987 -8.985 -8.486 -8.486 C -8.985 -7.987 -9.586 -7.254 -9.978 -6.667 C -10.37 -6.08 -10.817 -5.245 -11.087 -4.593 C -11.357 -3.941 -11.632 -3.034 -11.77 -2.342 C -11.908 -1.649 -12 -0.706 -12 0 L -13 0 Z " fill="#000000" stroke="undefined" stroke-width="1" stroke-opacity="1" fill-opacity="1" visibility="visible" stroke-linecap="butt" stroke-linejoin="miter" stroke-miterlimit="4" id="two-55"></path><path transform="matrix(1 0 0 1 0 0)" d="M 342 104.1 L 352.58 89.537 " fill="#fff" stroke="#000" stroke-width="1" stroke-opacity="1" fill-opacity="1" visibility="visible" stroke-linecap="butt" stroke-linejoin="miter" stroke-miterlimit="4" id="two-56"></path><text transform="matrix(1 0 0 1 342 114)" font-family="sans-serif" font-size="16" line-height="17" text-anchor="middle" dominant-baseline="middle" alignment-baseline="middle" font-style="normal" font-weight="500" text-decoration="none" fill="#000" stroke="transparent" stroke-width="1" opacity="1" class="" visibility="visible" id="two-57">Z</text><path transform="matrix(1 0 0 1 0 0)" d="M 402 162 " fill="#fff" stroke="#000" stroke-width="1" stroke-opacity="1" fill-opacity="1" visibility="visible" stroke-linecap="butt" stroke-linejoin="miter" stroke-miterlimit="4" id="two-58"></path><path transform="matrix(1 0 0 1 0 0)" d="M 400.2 162 L 400.2 282 " fill="#fff" stroke="#000" stroke-width="1" stroke-opacity="1" fill-opacity="1" visibility="visible" stroke-linecap="butt" stroke-linejoin="miter" stroke-miterlimit="4" id="two-59"></path><path transform="matrix(1 0 0 1 0 0)" d="M 403.8 162 L 403.8 282 " fill="#fff" stroke="#000" stroke-width="1" stroke-opacity="1" fill-opacity="1" visibility="visible" stroke-linecap="butt" stroke-linejoin="miter" stroke-miterlimit="4" id="two-60"></path><path transform="matrix(1 0 0 1 402 282)" d="M 6 0 C 6 3.313 3.313 6 0 6 C -3.314 6 -6 3.313 -6 0 C -6.001 -3.314 -3.314 -6 -0.001 -6 C 3.313 -6.001 6 -3.314 6 0 Z " fill="#000000" stroke="#000000" stroke-width="1" stroke-opacity="1" fill-opacity="1" visibility="visible" stroke-linecap="butt" stroke-linejoin="miter" stroke-miterlimit="4" id="two-61"></path><path transform="matrix(1 0 0 1 402 162)" d="M -21 -21 L 21 -21 L 21 21 L -21 21 Z " fill="#cde9f7" stroke="#000000" stroke-width="1" stroke-opacity="1" fill-opacity="1" visibility="visible" stroke-linecap="butt" stroke-linejoin="miter" stroke-miterlimit="4" id="two-62"></path><text transform="matrix(1 0 0 1 402 162)" font-family="sans-serif" font-size="30" line-height="17" text-anchor="middle" dominant-baseline="middle" alignment-baseline="middle" font-style="normal" font-weight="500" text-decoration="none" fill="#000" stroke="transparent" stroke-width="1" opacity="1" class="" visibility="visible" id="two-63">X</text><path transform="matrix(1 0 0 1 0 0)" d="M 462 162 " fill="#fff" stroke="#000" stroke-width="1" stroke-opacity="1" fill-opacity="1" visibility="visible" stroke-linecap="butt" stroke-linejoin="miter" stroke-miterlimit="4" id="two-64"></path><path transform="matrix(1 0 0 1 0 0)" d="M 460.2 162 L 460.2 222 " fill="#fff" stroke="#000" stroke-width="1" stroke-opacity="1" fill-opacity="1" visibility="visible" stroke-linecap="butt" stroke-linejoin="miter" stroke-miterlimit="4" id="two-65"></path><path transform="matrix(1 0 0 1 0 0)" d="M 463.8 162 L 463.8 222 " fill="#fff" stroke="#000" stroke-width="1" stroke-opacity="1" fill-opacity="1" visibility="visible" stroke-linecap="butt" stroke-linejoin="miter" stroke-miterlimit="4" id="two-66"></path><path transform="matrix(1 0 0 1 462 222)" d="M 6 0 C 6 3.313 3.313 6 0 6 C -3.314 6 -6 3.313 -6 0 C -6.001 -3.314 -3.314 -6 -0.001 -6 C 3.313 -6.001 6 -3.314 6 0 Z " fill="#000000" stroke="#000000" stroke-width="1" stroke-opacity="1" fill-opacity="1" visibility="visible" stroke-linecap="butt" stroke-linejoin="miter" stroke-miterlimit="4" id="two-67"></path><path transform="matrix(1 0 0 1 462 162)" d="M -21 -21 L 21 -21 L 21 21 L -21 21 Z " fill="#cde9f7" stroke="#000000" stroke-width="1" stroke-opacity="1" fill-opacity="1" visibility="visible" stroke-linecap="butt" stroke-linejoin="miter" stroke-miterlimit="4" id="two-68"></path><text transform="matrix(1 0 0 1 462 162)" font-family="sans-serif" font-size="30" line-height="17" text-anchor="middle" dominant-baseline="middle" alignment-baseline="middle" font-style="normal" font-weight="500" text-decoration="none" fill="#000" stroke="transparent" stroke-width="1" opacity="1" class="" visibility="visible" id="two-69">Z</text></g></svg>
